<svg xmlns="http://www.w3.org/2000/svg" viewBox="0 0 190.57 82.49"><path d="M14,80.59H0V45H14c11.67,0,18.9,7.35,18.9,17.77S25.67,80.59,14,80.59M7.17,51.33h0v23H13.5c6.88,0,12-4,12-11.49s-5.09-11.48-12-11.48Z" fill="#231f20"/><path d="M50.86,45.2h1.25L70.33,80.59H62.25L60,75.75H43l-2.24,4.84H32.7Zm.83,12.91h-.47L45.85,69.67l-.41.77h12L57,69.67Z" fill="#231f20"/><path d="M75,45H91c9,0,14.57,4.45,14.57,12.21a11.32,11.32,0,0,1-6.7,10.83v.54l8.52,11.23v.71H99.29L91.42,69.75H82.18V80.59H75Zm15.81,6.29H82.18V63.71H91c4.5,0,7.22-2,7.22-6.17s-2.78-6.21-7.4-6.21" fill="#231f20"/><path d="M129.59,45h1.24l18.31,35.55H141l-2.31-4.86h-17l-2.24,4.86h-8.12Zm.83,13H130l-5.39,11.6-.42.77h12l-.41-.77Z" fill="#231f20"/><rect y="29.82" width="1.37" height="10.6" fill="#231f20"/><path d="M15.33,40.41l-4.22-6.9A21.13,21.13,0,0,1,10,31.41c0,1.14.11,4.2.11,6v3H8.77V29.85h1.82l4.16,6.79c.42.7.83,1.43,1.19,2.16-.07-1.36-.12-4.35-.12-6.23V29.85h1.33V40.41Z" fill="#231f20"/><path d="M26.11,40.56a8.91,8.91,0,0,1-2.3-.3L24,38.94a5.94,5.94,0,0,0,2.2.43c1.25,0,2.35-.53,2.35-1.87,0-2.42-4.82-1.48-4.82-4.84,0-1.72,1.31-3,3.66-3a8.64,8.64,0,0,1,1.9.21l-.15,1.2a6.22,6.22,0,0,0-1.82-.22c-1.48,0-2.19.67-2.19,1.7C25.12,34.89,30,34,30,37.36c0,1.89-1.53,3.24-3.9,3.24" fill="#231f20"/><polygon points="39.37 30.97 39.37 40.41 38.01 40.41 38.01 30.97 34.92 30.97 34.92 29.82 42.47 29.82 42.47 30.97 39.37 30.97" fill="#231f20"/><rect x="48.48" y="29.82" width="1.37" height="10.6" fill="#231f20"/><polygon points="60.32 30.97 60.32 40.41 58.95 40.41 58.95 30.97 55.86 30.97 55.86 29.82 63.41 29.82 63.41 30.97 60.32 30.97" fill="#231f20"/><path d="M73.14,40.56c-3.31,0-4-1.84-4-3.69v-7h1.45v6.94c0,1.48.49,2.69,2.67,2.69,1.87,0,2.77-.79,2.77-3V29.85h1.35v6.56c0,2.75-1.47,4.18-4.21,4.18" fill="#231f20"/><polygon points="87.55 30.97 87.55 40.41 86.18 40.41 86.18 30.97 83.09 30.97 83.09 29.82 90.64 29.82 90.64 30.97 87.55 30.97" fill="#231f20"/><path d="M100,40.56c-3.17,0-4.71-2.11-4.71-5.31,0-3.56,2.26-5.57,5-5.57,3.16,0,4.7,2.1,4.7,5.3,0,3.56-2.26,5.58-5,5.58m.15-9.69h0c-1.86,0-3.4,1.51-3.4,4.14s1.12,4.33,3.38,4.33c1.87,0,3.41-1.48,3.41-4.13s-1.1-4.36-3.38-4.36" fill="#231f20"/><path d="M159.7,28.85a6.51,6.51,0,0,0,0,13h24a6.51,6.51,0,1,0,.72-13,4.33,4.33,0,0,0-.72,0Z" fill="#00aaa5"/><path d="M122.45,30.11a5.28,5.28,0,0,0,0,10.55h5.87a5.28,5.28,0,0,0,.46-10.55h-6.33Z" fill="#a6be4b"/><path d="M146.05,18.55a6.08,6.08,0,0,0,10.54,6.07l9-15.65a6.08,6.08,0,0,0-10.5-6.12Z" fill="#c81f66"/><path d="M134.52,8.65a5.68,5.68,0,0,0-9.84,5.68h0l6.06,10.52a5.69,5.69,0,1,0,9.85-5.71h0Z" fill="#f37021"/><path d="M157.74,46.39a6.93,6.93,0,0,0-12,6.92l15,25.91a6.93,6.93,0,0,0,12-6.92Z" fill="#426ab3"/></svg>